<svg width="56" height="64" viewBox="0 0 56 64" fill="none" xmlns="http://www.w3.org/2000/svg">
<g filter="url(#filter0_d_22_258)">
<path d="M28.55 45.58C28.95 45.5467 29.2917 45.3883 29.575 45.105C29.8583 44.8217 30 44.48 30 44.08C30 43.6133 29.85 43.2383 29.55 42.955C29.25 42.6717 28.8667 42.5467 28.4 42.58C27.0333 42.68 25.5833 42.305 24.05 41.455C22.5167 40.605 21.55 39.0633 21.15 36.83C21.0833 36.4633 20.9083 36.1633 20.625 35.93C20.3417 35.6967 20.0167 35.58 19.65 35.58C19.1833 35.58 18.8 35.755 18.5 36.105C18.2 36.455 18.1 36.8633 18.2 37.33C18.7667 40.3633 20.1 42.53 22.2 43.83C24.3 45.13 26.4167 45.7133 28.55 45.58V45.58M28 51.58C23.4333 51.58 19.625 50.0133 16.575 46.88C13.525 43.7467 12 39.8467 12 35.18C12 31.8467 13.325 28.2217 15.975 24.305C18.625 20.3883 22.6333 16.1467 28 11.58C33.3667 16.1467 37.375 20.3883 40.025 24.305C42.675 28.2217 44 31.8467 44 35.18C44 39.8467 42.475 43.7467 39.425 46.88C36.375 50.0133 32.5667 51.58 28 51.58V51.58" fill="#60A5FA"/>
</g>
<defs>
<filter id="filter0_d_22_258" x="0" y="-0.420013" width="56" height="64" filterUnits="userSpaceOnUse" color-interpolation-filters="sRGB">
<feFlood flood-opacity="0" result="BackgroundImageFix"/>
<feColorMatrix in="SourceAlpha" type="matrix" values="0 0 0 0 0 0 0 0 0 0 0 0 0 0 0 0 0 0 127 0" result="hardAlpha"/>
<feOffset/>
<feGaussianBlur stdDeviation="6"/>
<feComposite in2="hardAlpha" operator="out"/>
<feColorMatrix type="matrix" values="0 0 0 0 0.0117647 0 0 0 0 0.662745 0 0 0 0 0.956863 0 0 0 0.4 0"/>
<feBlend mode="normal" in2="BackgroundImageFix" result="effect1_dropShadow_22_258"/>
<feBlend mode="normal" in="SourceGraphic" in2="effect1_dropShadow_22_258" result="shape"/>
</filter>
</defs>
</svg>
