<svg width="68" height="68" viewBox="0 0 68 68" fill="none" xmlns="http://www.w3.org/2000/svg">
<g filter="url(#filter0_d_22_318)">
<path d="M48 27.57L45.5 22.07L40 19.57L45.5 17.07L48 11.57L50.5 17.07L56 19.57L50.5 22.07L48 27.57V27.57M48 55.57L45.5 50.07L40 47.57L45.5 45.07L48 39.57L50.5 45.07L56 47.57L50.5 50.07L48 55.57V55.57M28 49.57L23 38.57L12 33.57L23 28.57L28 17.57L33 28.57L44 33.57L33 38.57L28 49.57V49.57" fill="#F472B6"/>
</g>
<defs>
<filter id="filter0_d_22_318" x="0" y="-0.429993" width="68" height="68" filterUnits="userSpaceOnUse" color-interpolation-filters="sRGB">
<feFlood flood-opacity="0" result="BackgroundImageFix"/>
<feColorMatrix in="SourceAlpha" type="matrix" values="0 0 0 0 0 0 0 0 0 0 0 0 0 0 0 0 0 0 127 0" result="hardAlpha"/>
<feOffset/>
<feGaussianBlur stdDeviation="6"/>
<feComposite in2="hardAlpha" operator="out"/>
<feColorMatrix type="matrix" values="0 0 0 0 0.913725 0 0 0 0 0.117647 0 0 0 0 0.388235 0 0 0 0.4 0"/>
<feBlend mode="normal" in2="BackgroundImageFix" result="effect1_dropShadow_22_318"/>
<feBlend mode="normal" in="SourceGraphic" in2="effect1_dropShadow_22_318" result="shape"/>
</filter>
</defs>
</svg>
