<svg width="64" height="52" viewBox="0 0 64 52" fill="none" xmlns="http://www.w3.org/2000/svg">
<g filter="url(#filter0_d_23_473)">
<path d="M36 21.8V18.4C37.1 17.9333 38.225 17.5833 39.375 17.35C40.525 17.1167 41.7333 17 43 17C43.8667 17 44.7167 17.0667 45.55 17.2C46.3833 17.3333 47.2 17.5 48 17.7V20.9C47.2 20.6 46.3917 20.375 45.575 20.225C44.7583 20.075 43.9 20 43 20C41.7333 20 40.5167 20.1583 39.35 20.475C38.1833 20.7917 37.0667 21.2333 36 21.8V21.8M36 32.8V29.4C37.1 28.9333 38.225 28.5833 39.375 28.35C40.525 28.1167 41.7333 28 43 28C43.8667 28 44.7167 28.0667 45.55 28.2C46.3833 28.3333 47.2 28.5 48 28.7V31.9C47.2 31.6 46.3917 31.375 45.575 31.225C44.7583 31.075 43.9 31 43 31C41.7333 31 40.5167 31.15 39.35 31.45C38.1833 31.75 37.0667 32.2 36 32.8V32.8M36 27.3V23.9C37.1 23.4333 38.225 23.0833 39.375 22.85C40.525 22.6167 41.7333 22.5 43 22.5C43.8667 22.5 44.7167 22.5667 45.55 22.7C46.3833 22.8333 47.2 23 48 23.2V26.4C47.2 26.1 46.3917 25.875 45.575 25.725C44.7583 25.575 43.9 25.5 43 25.5C41.7333 25.5 40.5167 25.6583 39.35 25.975C38.1833 26.2917 37.0667 26.7333 36 27.3V27.3M34 36.1C35.4667 35.4 36.9417 34.875 38.425 34.525C39.9083 34.175 41.4333 34 43 34C44.2 34 45.375 34.1 46.525 34.3C47.675 34.5 48.8333 34.8 50 35.2V35.2V35.2V15.4V15.4V15.4C48.9 14.9333 47.7583 14.5833 46.575 14.35C45.3917 14.1167 44.2 14 43 14C41.4333 14 39.8833 14.2 38.35 14.6C36.8167 15 35.3667 15.6 34 16.4V36.1V36.1M32 42C30.4 40.7333 28.6667 39.75 26.8 39.05C24.9333 38.35 23 38 21 38C19.6 38 18.225 38.1833 16.875 38.55C15.525 38.9167 14.2333 39.4333 13 40.1C12.3 40.4667 11.625 40.45 10.975 40.05C10.325 39.65 10 39.0667 10 38.3V14.2C10 13.8333 10.0917 13.4833 10.275 13.15C10.4583 12.8167 10.7333 12.5667 11.1 12.4C12.6667 11.6333 14.275 11.0417 15.925 10.625C17.575 10.2083 19.2667 10 21 10C22.9333 10 24.825 10.25 26.675 10.75C28.525 11.25 30.3 12 32 13C33.7 12 35.475 11.25 37.325 10.75C39.175 10.25 41.0667 10 43 10C44.7333 10 46.425 10.2083 48.075 10.625C49.725 11.0417 51.3333 11.6333 52.9 12.4C53.2667 12.5667 53.5417 12.8167 53.725 13.15C53.9083 13.4833 54 13.8333 54 14.2V38.3C54 39.0667 53.675 39.65 53.025 40.05C52.375 40.45 51.7 40.4667 51 40.1C49.7667 39.4333 48.475 38.9167 47.125 38.55C45.775 38.1833 44.4 38 43 38C41 38 39.0667 38.35 37.2 39.05C35.3333 39.75 33.6 40.7333 32 42V42" fill="url(#paint0_linear_23_473)"/>
</g>
<defs>
<filter id="filter0_d_23_473" x="0" y="0" width="64" height="52" filterUnits="userSpaceOnUse" color-interpolation-filters="sRGB">
<feFlood flood-opacity="0" result="BackgroundImageFix"/>
<feColorMatrix in="SourceAlpha" type="matrix" values="0 0 0 0 0 0 0 0 0 0 0 0 0 0 0 0 0 0 127 0" result="hardAlpha"/>
<feOffset/>
<feGaussianBlur stdDeviation="5"/>
<feComposite in2="hardAlpha" operator="out"/>
<feColorMatrix type="matrix" values="0 0 0 0 1 0 0 0 0 0.45098 0 0 0 0 0 0 0 0 0.6 0"/>
<feBlend mode="normal" in2="BackgroundImageFix" result="effect1_dropShadow_23_473"/>
<feBlend mode="normal" in="SourceGraphic" in2="effect1_dropShadow_23_473" result="shape"/>
</filter>
<linearGradient id="paint0_linear_23_473" x1="10" y1="10" x2="40.4432" y2="51.8595" gradientUnits="userSpaceOnUse">
<stop stop-color="#FF9D00"/>
<stop offset="1" stop-color="#FF4D00"/>
</linearGradient>
</defs>
</svg>
