<svg width="44" height="56" viewBox="0 0 44 56" fill="none" xmlns="http://www.w3.org/2000/svg">
<g filter="url(#filter0_d_40_23)">
<path d="M17 48C14.5 48 12.375 47.125 10.625 45.375C8.875 43.625 8 41.5 8 39C8 37.8333 8.28333 36.7583 8.85 35.775C9.41667 34.7917 10.4667 33.5333 12 32C12.2 31.8 12.3917 31.5917 12.575 31.375C12.7583 31.1583 13 30.8667 13.3 30.5C11.6 27.9 10.2917 25.175 9.375 22.325C8.45833 19.475 8 16.7 8 14C8 12.0667 8.35 10.5833 9.05 9.55C9.75 8.51667 10.7333 8 12 8C13.9 8 15.6 8.91667 17.1 10.75C18.6 12.5833 19.7333 14.2667 20.5 15.8C20.8 16.4667 21.075 17.1417 21.325 17.825C21.575 18.5083 21.8 19.2167 22 19.95C22.2 19.2167 22.425 18.5083 22.675 17.825C22.925 17.1417 23.2167 16.4667 23.55 15.8C24.2833 14.2667 25.4 12.5833 26.9 10.75C28.4 8.91667 30.1 8 32 8C33.2667 8 34.25 8.51667 34.95 9.55C35.65 10.5833 36 12.0667 36 14C36 16.7 35.5417 19.475 34.625 22.325C33.7083 25.175 32.4 27.9 30.7 30.5C31 30.8667 31.2417 31.1583 31.425 31.375C31.6083 31.5917 31.8 31.8 32 32C33.5333 33.5333 34.5833 34.7917 35.15 35.775C35.7167 36.7583 36 37.8333 36 39C36 41.5 35.125 43.625 33.375 45.375C31.625 47.125 29.5 48 27 48C25.5 48 24.2917 47.8333 23.375 47.5C22.4583 47.1667 22 47 22 47C22 47 21.5417 47.1667 20.625 47.5C19.7083 47.8333 18.5 48 17 48V48M17 44C17.7667 44 18.5333 43.9083 19.3 43.725C20.0667 43.5417 20.7833 43.2667 21.45 42.9C21.0833 42.7333 20.75 42.45 20.45 42.05C20.15 41.65 20 41.3 20 41C20 40.7333 20.1917 40.5 20.575 40.3C20.9583 40.1 21.4333 40 22 40C22.5667 40 23.0417 40.1 23.425 40.3C23.8083 40.5 24 40.7333 24 41C24 41.3 23.85 41.65 23.55 42.05C23.25 42.45 22.9167 42.7333 22.55 42.9C23.2167 43.2667 23.9333 43.5417 24.7 43.725C25.4667 43.9083 26.2333 44 27 44C28.4 44 29.5833 43.5167 30.55 42.55C31.5167 41.5833 32 40.4 32 39C32 38.4 31.8333 37.8167 31.5 37.25C31.1667 36.6833 30.6667 36.1167 30 35.55C29.5333 35.15 29.15 34.8 28.85 34.5C28.55 34.2 28.0667 33.6333 27.4 32.8C26.4333 31.6333 25.6333 30.875 25 30.525C24.3667 30.175 23.3667 30 22 30C20.6333 30 19.625 30.175 18.975 30.525C18.325 30.875 17.5333 31.6333 16.6 32.8C15.9333 33.6333 15.45 34.2 15.15 34.5C14.85 34.8 14.4667 35.15 14 35.55C13.3333 36.1167 12.8333 36.6833 12.5 37.25C12.1667 37.8167 12 38.4 12 39C12 40.4 12.4833 41.5833 13.45 42.55C14.4167 43.5167 15.6 44 17 44V44M19 37.5C18.7333 37.5 18.5 37.35 18.3 37.05C18.1 36.75 18 36.4 18 36C18 35.6 18.1 35.25 18.3 34.95C18.5 34.65 18.7333 34.5 19 34.5C19.2667 34.5 19.5 34.65 19.7 34.95C19.9 35.25 20 35.6 20 36C20 36.4 19.9 36.75 19.7 37.05C19.5 37.35 19.2667 37.5 19 37.5V37.5M25 37.5C24.7333 37.5 24.5 37.35 24.3 37.05C24.1 36.75 24 36.4 24 36C24 35.6 24.1 35.25 24.3 34.95C24.5 34.65 24.7333 34.5 25 34.5C25.2667 34.5 25.5 34.65 25.7 34.95C25.9 35.25 26 35.6 26 36C26 36.4 25.9 36.75 25.7 37.05C25.5 37.35 25.2667 37.5 25 37.5V37.5M16.15 27.55C16.5167 27.2833 16.9333 27.05 17.4 26.85C17.8667 26.65 18.3833 26.4667 18.95 26.3C18.8833 24.7 18.6417 23.1083 18.225 21.525C17.8083 19.9417 17.2833 18.5 16.65 17.2C16.0167 15.8667 15.3167 14.7417 14.55 13.825C13.7833 12.9083 13.0167 12.3167 12.25 12.05C12.1833 12.25 12.125 12.5083 12.075 12.825C12.025 13.1417 12 13.5333 12 14C12 16.2667 12.3583 18.5667 13.075 20.9C13.7917 23.2333 14.8167 25.45 16.15 27.55V27.55M27.85 27.55C29.1833 25.45 30.2083 23.2333 30.925 20.9C31.6417 18.5667 32 16.2667 32 14C32 13.5333 31.975 13.1417 31.925 12.825C31.875 12.5083 31.8167 12.25 31.75 12.05C30.9833 12.3167 30.2167 12.9083 29.45 13.825C28.6833 14.7417 27.9833 15.8667 27.35 17.2C26.75 18.5 26.2417 19.9417 25.825 21.525C25.4083 23.1083 25.15 24.7 25.05 26.3C25.55 26.4333 26.0333 26.6083 26.5 26.825C26.9667 27.0417 27.4167 27.2833 27.85 27.55V27.55" fill="#FFB778"/>
</g>
<defs>
<filter id="filter0_d_40_23" x="0" y="0" width="44" height="56" filterUnits="userSpaceOnUse" color-interpolation-filters="sRGB">
<feFlood flood-opacity="0" result="BackgroundImageFix"/>
<feColorMatrix in="SourceAlpha" type="matrix" values="0 0 0 0 0 0 0 0 0 0 0 0 0 0 0 0 0 0 127 0" result="hardAlpha"/>
<feOffset/>
<feGaussianBlur stdDeviation="4"/>
<feComposite in2="hardAlpha" operator="out"/>
<feColorMatrix type="matrix" values="0 0 0 0 1 0 0 0 0 0.717647 0 0 0 0 0.470588 0 0 0 0.6 0"/>
<feBlend mode="normal" in2="BackgroundImageFix" result="effect1_dropShadow_40_23"/>
<feBlend mode="normal" in="SourceGraphic" in2="effect1_dropShadow_40_23" result="shape"/>
</filter>
</defs>
</svg>
