<svg width="56" height="60" viewBox="0 0 56 60" fill="none" xmlns="http://www.w3.org/2000/svg">
<g filter="url(#filter0_d_22_252)">
<path d="M12 33.58C12 30.08 12.8333 26.9633 14.5 24.23C16.1667 21.4967 18 19.1967 20 17.33C22 15.4633 23.8333 14.0383 25.5 13.055C27.1667 12.0717 28 11.58 28 11.58V18.18C28 19.4133 28.4167 20.3883 29.25 21.105C30.0833 21.8217 31.0167 22.18 32.05 22.18C32.6167 22.18 33.1583 22.0633 33.675 21.83C34.1917 21.5967 34.6667 21.2133 35.1 20.68L36 19.58C38.4 20.98 40.3333 22.9217 41.8 25.405C43.2667 27.8883 44 30.6133 44 33.58C44 36.5133 43.2833 39.1883 41.85 41.605C40.4167 44.0217 38.5333 45.93 36.2 47.33C36.7667 46.53 37.2083 45.655 37.525 44.705C37.8417 43.755 38 42.7467 38 41.68C38 40.3467 37.75 39.0883 37.25 37.905C36.75 36.7217 36.0333 35.6633 35.1 34.73L28 27.78L20.95 34.73C19.9833 35.6967 19.25 36.7633 18.75 37.93C18.25 39.0967 18 40.3467 18 41.68C18 42.7467 18.1583 43.755 18.475 44.705C18.7917 45.655 19.2333 46.53 19.8 47.33C17.4667 45.93 15.5833 44.0217 14.15 41.605C12.7167 39.1883 12 36.5133 12 33.58V33.58M28 33.38L32.25 37.53C32.8167 38.0967 33.25 38.73 33.55 39.43C33.85 40.13 34 40.88 34 41.68C34 43.3133 33.4167 44.705 32.25 45.855C31.0833 47.005 29.6667 47.58 28 47.58C26.3333 47.58 24.9167 47.005 23.75 45.855C22.5833 44.705 22 43.3133 22 41.68C22 40.9133 22.15 40.1717 22.45 39.455C22.75 38.7383 23.1833 38.0967 23.75 37.53L28 33.38V33.38" fill="#F97316"/>
</g>
<defs>
<filter id="filter0_d_22_252" x="0" y="-0.420013" width="56" height="60" filterUnits="userSpaceOnUse" color-interpolation-filters="sRGB">
<feFlood flood-opacity="0" result="BackgroundImageFix"/>
<feColorMatrix in="SourceAlpha" type="matrix" values="0 0 0 0 0 0 0 0 0 0 0 0 0 0 0 0 0 0 127 0" result="hardAlpha"/>
<feOffset/>
<feGaussianBlur stdDeviation="6"/>
<feComposite in2="hardAlpha" operator="out"/>
<feColorMatrix type="matrix" values="0 0 0 0 1 0 0 0 0 0.341176 0 0 0 0 0.133333 0 0 0 0.4 0"/>
<feBlend mode="normal" in2="BackgroundImageFix" result="effect1_dropShadow_22_252"/>
<feBlend mode="normal" in="SourceGraphic" in2="effect1_dropShadow_22_252" result="shape"/>
</filter>
</defs>
</svg>
