<svg width="64" height="40" viewBox="0 0 64 40" fill="none" xmlns="http://www.w3.org/2000/svg">
<g filter="url(#filter0_d_23_489)">
<path d="M21.7 26C22.7333 26 23.6583 25.7 24.475 25.1C25.2917 24.5 25.8667 23.7167 26.2 22.75L26.95 20.45C27.4833 18.85 27.35 17.375 26.55 16.025C25.75 14.675 24.6 14 23.1 14H16.05L17 21.85C17.1667 23.0167 17.6917 24 18.575 24.8C19.4583 25.6 20.5 26 21.7 26V26M42.3 26C43.5 26 44.5417 25.6 45.425 24.8C46.3083 24 46.8333 23.0167 47 21.85L47.95 14H40.95C39.45 14 38.3 14.6833 37.5 16.05C36.7 17.4167 36.5667 18.9 37.1 20.5L37.8 22.75C38.1333 23.7167 38.7083 24.5 39.525 25.1C40.3417 25.7 41.2667 26 42.3 26V26M21.7 30C19.5 30 17.575 29.275 15.925 27.825C14.275 26.375 13.3167 24.55 13.05 22.35L12 14H10V10H23.1C24.5667 10 25.9083 10.3583 27.125 11.075C28.3417 11.7917 29.3 12.7667 30 14H34.05C34.75 12.7667 35.7083 11.7917 36.925 11.075C38.1417 10.3583 39.4833 10 40.95 10H54V14H52L50.95 22.35C50.6833 24.55 49.725 26.375 48.075 27.825C46.425 29.275 44.5 30 42.3 30C40.4 30 38.6917 29.4583 37.175 28.375C35.6583 27.2917 34.6 25.85 34 24.05L33.25 21.8C33.1833 21.5667 33.1167 21.325 33.05 21.075C32.9833 20.825 32.9167 20.4667 32.85 20H31.15C31.0833 20.4 31.0167 20.725 30.95 20.975C30.8833 21.225 30.8167 21.4667 30.75 21.7L30 24C29.4 25.8 28.3417 27.25 26.825 28.35C25.3083 29.45 23.6 30 21.7 30V30" fill="url(#paint0_linear_23_489)"/>
</g>
<defs>
<filter id="filter0_d_23_489" x="0" y="0" width="64" height="40" filterUnits="userSpaceOnUse" color-interpolation-filters="sRGB">
<feFlood flood-opacity="0" result="BackgroundImageFix"/>
<feColorMatrix in="SourceAlpha" type="matrix" values="0 0 0 0 0 0 0 0 0 0 0 0 0 0 0 0 0 0 127 0" result="hardAlpha"/>
<feOffset/>
<feGaussianBlur stdDeviation="5"/>
<feComposite in2="hardAlpha" operator="out"/>
<feColorMatrix type="matrix" values="0 0 0 0 1 0 0 0 0 0 0 0 0 0 0.615686 0 0 0 0.6 0"/>
<feBlend mode="normal" in2="BackgroundImageFix" result="effect1_dropShadow_23_489"/>
<feBlend mode="normal" in="SourceGraphic" in2="effect1_dropShadow_23_489" result="shape"/>
</filter>
<linearGradient id="paint0_linear_23_489" x1="10" y1="10" x2="25.0685" y2="43.1507" gradientUnits="userSpaceOnUse">
<stop stop-color="#FF0077"/>
<stop offset="1" stop-color="#FF00D4"/>
</linearGradient>
</defs>
</svg>
