<svg width="19" height="20" viewBox="0 0 19 20" fill="none" xmlns="http://www.w3.org/2000/svg">
<path d="M9.025 2.44998C10.7917 2.44998 12.4583 2.82914 14.025 3.58748C15.5917 4.34581 16.9 5.44164 17.95 6.87498C18.0667 7.02498 18.1042 7.15831 18.0625 7.27498C18.0208 7.39164 17.95 7.49164 17.85 7.57498C17.75 7.65831 17.6333 7.69581 17.5 7.68748C17.3667 7.67914 17.25 7.60831 17.15 7.47498C16.2333 6.17498 15.0542 5.17914 13.6125 4.48747C12.1708 3.79581 10.6417 3.44998 9.025 3.44998C7.40833 3.44998 5.89167 3.79581 4.475 4.48747C3.05833 5.17914 1.88333 6.17498 0.95 7.47498C0.85 7.62498 0.733333 7.70831 0.6 7.72498C0.466667 7.74164 0.35 7.70831 0.25 7.62498C0.133333 7.54164 0.0625 7.43748 0.0375001 7.31248C0.0125 7.18748 0.05 7.05831 0.15 6.92497C1.18333 5.50831 2.47917 4.40831 4.0375 3.62498C5.59583 2.84164 7.25833 2.44998 9.025 2.44998ZM9.025 4.79998C11.275 4.79998 13.2083 5.54998 14.825 7.04998C16.4417 8.54998 17.25 10.4083 17.25 12.625C17.25 13.4583 16.9542 14.1541 16.3625 14.7125C15.7708 15.2708 15.05 15.55 14.2 15.55C13.35 15.55 12.6208 15.2708 12.0125 14.7125C11.4042 14.1541 11.1 13.4583 11.1 12.625C11.1 12.075 10.8958 11.6125 10.4875 11.2375C10.0792 10.8625 9.59167 10.675 9.025 10.675C8.45833 10.675 7.97083 10.8625 7.5625 11.2375C7.15417 11.6125 6.95 12.075 6.95 12.625C6.95 14.2416 7.42917 15.5916 8.3875 16.675C9.34583 17.7583 10.5833 18.5166 12.1 18.95C12.25 19 12.35 19.0833 12.4 19.2C12.45 19.3166 12.4583 19.4416 12.425 19.575C12.3917 19.6916 12.325 19.7916 12.225 19.875C12.125 19.9583 12 19.9833 11.85 19.95C10.1167 19.5166 8.7 18.6541 7.6 17.3625C6.5 16.0708 5.95 14.4916 5.95 12.625C5.95 11.7916 6.25 11.0916 6.85 10.525C7.45 9.95831 8.175 9.67498 9.025 9.67498C9.875 9.67498 10.6 9.95831 11.2 10.525C11.8 11.0916 12.1 11.7916 12.1 12.625C12.1 13.175 12.3083 13.6375 12.725 14.0125C13.1417 14.3875 13.6333 14.575 14.2 14.575C14.7667 14.575 15.25 14.3875 15.65 14.0125C16.05 13.6375 16.25 13.175 16.25 12.625C16.25 10.6916 15.5417 9.06664 14.125 7.74998C12.7083 6.43331 11.0167 5.77498 9.05 5.77498C7.08333 5.77498 5.39167 6.43331 3.975 7.74998C2.55833 9.06664 1.85 10.6833 1.85 12.6C1.85 13 1.8875 13.5 1.9625 14.1C2.0375 14.7 2.21667 15.4 2.5 16.2C2.55 16.35 2.54583 16.4833 2.4875 16.6C2.42917 16.7166 2.33333 16.8 2.2 16.85C2.06667 16.9 1.9375 16.8958 1.8125 16.8375C1.6875 16.7791 1.6 16.6833 1.55 16.55C1.3 15.9 1.12083 15.2541 1.0125 14.6125C0.904167 13.9708 0.85 13.3083 0.85 12.625C0.85 10.4083 1.65417 8.54998 3.2625 7.04998C4.87083 5.54998 6.79167 4.79998 9.025 4.79998ZM9.025 -2.38419e-05C10.0917 -2.38419e-05 11.1333 0.129143 12.15 0.387476C13.1667 0.645809 14.15 1.01664 15.1 1.49998C15.25 1.58331 15.3375 1.68331 15.3625 1.79998C15.3875 1.91664 15.375 2.03331 15.325 2.14998C15.275 2.26664 15.1917 2.35831 15.075 2.42497C14.9583 2.49164 14.8167 2.48331 14.65 2.39998C13.7667 1.94998 12.8542 1.60414 11.9125 1.36248C10.9708 1.12081 10.0083 0.999975 9.025 0.999975C8.05833 0.999975 7.10833 1.11248 6.175 1.33748C5.24167 1.56248 4.35 1.91664 3.5 2.39998C3.36667 2.48331 3.23333 2.50414 3.1 2.46248C2.96667 2.42081 2.86667 2.33331 2.8 2.19998C2.73333 2.06664 2.71667 1.94581 2.75 1.83748C2.78333 1.72914 2.86667 1.63331 3 1.54998C3.93333 1.04998 4.90833 0.666642 5.925 0.399976C6.94167 0.133309 7.975 -2.38419e-05 9.025 -2.38419e-05ZM9.025 7.22498C10.575 7.22498 11.9083 7.74581 13.025 8.78748C14.1417 9.82914 14.7 11.1083 14.7 12.625C14.7 12.775 14.6542 12.8958 14.5625 12.9875C14.4708 13.0791 14.35 13.125 14.2 13.125C14.0667 13.125 13.95 13.0791 13.85 12.9875C13.75 12.8958 13.7 12.775 13.7 12.625C13.7 11.375 13.2375 10.3291 12.3125 9.48748C11.3875 8.64581 10.2917 8.22498 9.025 8.22498C7.75833 8.22498 6.67083 8.64581 5.7625 9.48748C4.85417 10.3291 4.4 11.375 4.4 12.625C4.4 13.975 4.63333 15.1208 5.1 16.0625C5.56667 17.0041 6.25 17.95 7.15 18.9C7.25 19 7.3 19.1166 7.3 19.25C7.3 19.3833 7.25 19.5 7.15 19.6C7.05 19.7 6.93333 19.75 6.8 19.75C6.66667 19.75 6.55 19.7 6.45 19.6C5.46667 18.5666 4.7125 17.5125 4.1875 16.4375C3.6625 15.3625 3.4 14.0916 3.4 12.625C3.4 11.1083 3.95 9.82914 5.05 8.78748C6.15 7.74581 7.475 7.22498 9.025 7.22498ZM9 12.125C9.15 12.125 9.27083 12.175 9.3625 12.275C9.45417 12.375 9.5 12.4916 9.5 12.625C9.5 13.875 9.95 14.9 10.85 15.7C11.75 16.5 12.8 16.9 14 16.9C14.1 16.9 14.2417 16.8916 14.425 16.875C14.6083 16.8583 14.8 16.8333 15 16.8C15.15 16.7666 15.2792 16.7875 15.3875 16.8625C15.4958 16.9375 15.5667 17.05 15.6 17.2C15.6333 17.3333 15.6083 17.45 15.525 17.55C15.4417 17.65 15.3333 17.7166 15.2 17.75C14.9 17.8333 14.6375 17.8791 14.4125 17.8875C14.1875 17.8958 14.05 17.9 14 17.9C12.5167 17.9 11.2292 17.4 10.1375 16.4C9.04583 15.4 8.5 14.1416 8.5 12.625C8.5 12.4916 8.54583 12.375 8.6375 12.275C8.72917 12.175 8.85 12.125 9 12.125Z" fill="#948DA5" fill-opacity="0.3"/>
</svg>
