<svg width="64" height="64" viewBox="0 0 64 64" fill="none" xmlns="http://www.w3.org/2000/svg">
<g filter="url(#filter0_d_22_282)">
<path d="M30 51.58V43.28L23.5 49.68L20.7 46.88L30 37.58V33.58H26L16.7 42.88L13.9 40.08L20.3 33.58H12V29.58H20.3L13.9 23.08L16.7 20.28L26 29.58H30V25.58L20.7 16.28L23.5 13.48L30 19.88V11.58H34V19.88L40.5 13.48L43.3 16.28L34 25.58V29.58H38L47.3 20.28L50.1 23.08L43.7 29.58H52V33.58H43.7L50.1 40.08L47.3 42.88L38 33.58H34V37.58L43.3 46.88L40.5 49.68L34 43.28V51.58H30Z" fill="#67E8F9"/>
</g>
<defs>
<filter id="filter0_d_22_282" x="0" y="-0.420013" width="64" height="64" filterUnits="userSpaceOnUse" color-interpolation-filters="sRGB">
<feFlood flood-opacity="0" result="BackgroundImageFix"/>
<feColorMatrix in="SourceAlpha" type="matrix" values="0 0 0 0 0 0 0 0 0 0 0 0 0 0 0 0 0 0 127 0" result="hardAlpha"/>
<feOffset/>
<feGaussianBlur stdDeviation="6"/>
<feComposite in2="hardAlpha" operator="out"/>
<feColorMatrix type="matrix" values="0 0 0 0 0 0 0 0 0 0.737255 0 0 0 0 0.831373 0 0 0 0.4 0"/>
<feBlend mode="normal" in2="BackgroundImageFix" result="effect1_dropShadow_22_282"/>
<feBlend mode="normal" in="SourceGraphic" in2="effect1_dropShadow_22_282" result="shape"/>
</filter>
</defs>
</svg>
