<svg width="131" height="32" viewBox="0 0 131 32" fill="none" xmlns="http://www.w3.org/2000/svg">
<path d="M1.716 26V8.12H4.836L11.538 17.216H10.044L16.596 8.12H19.716V26H16.446V11.846L17.718 12.158L10.908 21.2H10.524L3.9 12.158L4.986 11.846V26H1.716ZM28.482 26.288C27.138 26.288 25.961 25.984 24.951 25.376C23.941 24.768 23.156 23.946 22.596 22.91C22.036 21.874 21.756 20.72 21.756 19.448C21.756 18.14 22.043 16.977 22.617 15.959C23.191 14.941 23.967 14.138 24.945 13.55C25.923 12.962 27.026 12.668 28.254 12.668C29.266 12.668 30.163 12.834 30.945 13.166C31.727 13.498 32.389 13.959 32.931 14.549C33.473 15.139 33.886 15.816 34.17 16.58C34.454 17.344 34.596 18.164 34.596 19.04C34.596 19.272 34.585 19.506 34.563 19.742C34.541 19.978 34.502 20.188 34.446 20.372H24.366V17.972H32.658L31.164 19.088C31.32 18.352 31.289 17.696 31.071 17.12C30.853 16.544 30.499 16.088 30.009 15.752C29.519 15.416 28.934 15.248 28.254 15.248C27.586 15.248 26.999 15.414 26.493 15.746C25.987 16.078 25.602 16.559 25.338 17.189C25.074 17.819 24.97 18.58 25.026 19.472C24.958 20.28 25.065 20.989 25.347 21.599C25.629 22.209 26.045 22.683 26.595 23.021C27.145 23.359 27.786 23.528 28.518 23.528C29.234 23.528 29.843 23.376 30.345 23.072C30.847 22.768 31.244 22.364 31.536 21.86L34.08 23.09C33.824 23.714 33.423 24.267 32.877 24.749C32.331 25.231 31.685 25.608 30.939 25.88C30.193 26.152 29.374 26.288 28.482 26.288ZM36.372 26V12.956H39.342V15.962L39 15.476C39.232 14.532 39.711 13.828 40.437 13.364C41.163 12.9 42.014 12.668 42.99 12.668C44.054 12.668 44.995 12.945 45.813 13.499C46.631 14.053 47.16 14.79 47.4 15.71L46.5 15.788C46.904 14.736 47.505 13.953 48.303 13.439C49.101 12.925 50.022 12.668 51.066 12.668C51.99 12.668 52.816 12.876 53.544 13.292C54.272 13.708 54.847 14.286 55.269 15.026C55.691 15.766 55.902 16.622 55.902 17.594V26H52.752V18.344C52.752 17.764 52.648 17.268 52.44 16.856C52.232 16.444 51.942 16.123 51.57 15.893C51.198 15.663 50.754 15.548 50.238 15.548C49.738 15.548 49.297 15.663 48.915 15.893C48.533 16.123 48.237 16.445 48.027 16.859C47.817 17.273 47.712 17.768 47.712 18.344V26H44.562V18.344C44.562 17.764 44.458 17.268 44.25 16.856C44.042 16.444 43.752 16.123 43.38 15.893C43.008 15.663 42.564 15.548 42.048 15.548C41.544 15.548 41.102 15.663 40.722 15.893C40.342 16.123 40.047 16.445 39.837 16.859C39.627 17.273 39.522 17.768 39.522 18.344V26H36.372ZM64.332 26.288C63.056 26.288 61.895 25.993 60.849 25.403C59.803 24.813 58.97 24.004 58.35 22.976C57.73 21.948 57.42 20.78 57.42 19.472C57.42 18.156 57.729 16.988 58.347 15.968C58.965 14.948 59.796 14.143 60.84 13.553C61.884 12.963 63.048 12.668 64.332 12.668C65.616 12.668 66.777 12.962 67.815 13.55C68.853 14.138 69.68 14.942 70.296 15.962C70.912 16.982 71.22 18.152 71.22 19.472C71.22 20.784 70.909 21.954 70.287 22.982C69.665 24.01 68.835 24.818 67.797 25.406C66.759 25.994 65.604 26.288 64.332 26.288ZM64.332 23.408C65.04 23.408 65.664 23.24 66.204 22.904C66.744 22.568 67.17 22.102 67.482 21.506C67.794 20.91 67.95 20.232 67.95 19.472C67.95 18.712 67.794 18.039 67.482 17.453C67.17 16.867 66.744 16.403 66.204 16.061C65.664 15.719 65.04 15.548 64.332 15.548C63.624 15.548 62.997 15.719 62.451 16.061C61.905 16.403 61.475 16.867 61.161 17.453C60.847 18.039 60.69 18.712 60.69 19.472C60.69 20.232 60.847 20.91 61.161 21.506C61.475 22.102 61.905 22.568 62.451 22.904C62.997 23.24 63.624 23.408 64.332 23.408ZM72.996 26V12.956H75.966V15.842L75.726 15.422C76.018 14.442 76.49 13.761 77.142 13.379C77.794 12.997 78.572 12.806 79.476 12.806H80.256V15.596H79.128C78.236 15.596 77.516 15.869 76.968 16.415C76.42 16.961 76.146 17.732 76.146 18.728V26H72.996ZM82.968 31.28C82.616 31.28 82.272 31.251 81.936 31.193C81.6 31.135 81.298 31.04 81.03 30.908V28.274C81.238 28.326 81.487 28.375 81.777 28.421C82.067 28.467 82.34 28.49 82.596 28.49C83.32 28.49 83.848 28.326 84.18 27.998C84.512 27.67 84.8 27.234 85.044 26.69L85.914 24.68L85.866 27.326L80.184 12.956H83.568L87.546 23.564H86.34L90.312 12.956H93.708L88.026 27.326C87.698 28.154 87.293 28.866 86.811 29.462C86.329 30.058 85.771 30.51 85.137 30.818C84.503 31.126 83.78 31.28 82.968 31.28ZM94.308 26V23H95.358C96.122 23 96.733 22.78 97.191 22.34C97.649 21.9 97.878 21.312 97.878 20.576V8.12H101.148V20.45C101.148 21.566 100.913 22.54 100.443 23.372C99.973 24.204 99.303 24.85 98.433 25.31C97.563 25.77 96.538 26 95.358 26H94.308ZM110.052 26.288C108.776 26.288 107.615 25.993 106.569 25.403C105.523 24.813 104.69 24.004 104.07 22.976C103.45 21.948 103.14 20.78 103.14 19.472C103.14 18.156 103.449 16.988 104.067 15.968C104.685 14.948 105.516 14.143 106.56 13.553C107.604 12.963 108.768 12.668 110.052 12.668C111.336 12.668 112.497 12.962 113.535 13.55C114.573 14.138 115.4 14.942 116.016 15.962C116.632 16.982 116.94 18.152 116.94 19.472C116.94 20.784 116.629 21.954 116.007 22.982C115.385 24.01 114.555 24.818 113.517 25.406C112.479 25.994 111.324 26.288 110.052 26.288ZM110.052 23.408C110.76 23.408 111.384 23.24 111.924 22.904C112.464 22.568 112.89 22.102 113.202 21.506C113.514 20.91 113.67 20.232 113.67 19.472C113.67 18.712 113.514 18.039 113.202 17.453C112.89 16.867 112.464 16.403 111.924 16.061C111.384 15.719 110.76 15.548 110.052 15.548C109.344 15.548 108.717 15.719 108.171 16.061C107.625 16.403 107.195 16.867 106.881 17.453C106.567 18.039 106.41 18.712 106.41 19.472C106.41 20.232 106.567 20.91 106.881 21.506C107.195 22.102 107.625 22.568 108.171 22.904C108.717 23.24 109.344 23.408 110.052 23.408ZM120.072 31.28C119.72 31.28 119.376 31.251 119.04 31.193C118.704 31.135 118.402 31.04 118.134 30.908V28.274C118.342 28.326 118.591 28.375 118.881 28.421C119.171 28.467 119.444 28.49 119.7 28.49C120.424 28.49 120.952 28.326 121.284 27.998C121.616 27.67 121.904 27.234 122.148 26.69L123.018 24.68L122.97 27.326L117.288 12.956H120.672L124.65 23.564H123.444L127.416 12.956H130.812L125.13 27.326C124.802 28.154 124.397 28.866 123.915 29.462C123.433 30.058 122.875 30.51 122.241 30.818C121.607 31.126 120.884 31.28 120.072 31.28Z" fill="url(#paint0_linear_2_191)"/>
<defs>
<linearGradient id="paint0_linear_2_191" x1="0" y1="16" x2="130.5" y2="16" gradientUnits="userSpaceOnUse">
<stop stop-color="#6833EA"/>
<stop offset="1" stop-color="#8E4E00"/>
</linearGradient>
</defs>
</svg>
