<svg width="60" height="60" viewBox="0 0 60 60" fill="none" xmlns="http://www.w3.org/2000/svg">
<g filter="url(#filter0_d_23_477)">
<path d="M26 34H34V30H26V34V34M26 28H42V24H26V28V28M26 22H42V18H26V22V22M22 42C20.9 42 19.9583 41.6083 19.175 40.825C18.3917 40.0417 18 39.1 18 38V14C18 12.9 18.3917 11.9583 19.175 11.175C19.9583 10.3917 20.9 10 22 10H46C47.1 10 48.0417 10.3917 48.825 11.175C49.6083 11.9583 50 12.9 50 14V38C50 39.1 49.6083 40.0417 48.825 40.825C48.0417 41.6083 47.1 42 46 42H22V42M14 50C12.9 50 11.9583 49.6083 11.175 48.825C10.3917 48.0417 10 47.1 10 46V18H14V46V46V46H42V50H14V50" fill="url(#paint0_linear_23_477)"/>
</g>
<defs>
<filter id="filter0_d_23_477" x="0" y="0" width="60" height="60" filterUnits="userSpaceOnUse" color-interpolation-filters="sRGB">
<feFlood flood-opacity="0" result="BackgroundImageFix"/>
<feColorMatrix in="SourceAlpha" type="matrix" values="0 0 0 0 0 0 0 0 0 0 0 0 0 0 0 0 0 0 127 0" result="hardAlpha"/>
<feOffset/>
<feGaussianBlur stdDeviation="5"/>
<feComposite in2="hardAlpha" operator="out"/>
<feColorMatrix type="matrix" values="0 0 0 0 0 0 0 0 0 0.74902 0 0 0 0 1 0 0 0 0.6 0"/>
<feBlend mode="normal" in2="BackgroundImageFix" result="effect1_dropShadow_23_477"/>
<feBlend mode="normal" in="SourceGraphic" in2="effect1_dropShadow_23_477" result="shape"/>
</filter>
<linearGradient id="paint0_linear_23_477" x1="10" y1="10" x2="50" y2="50" gradientUnits="userSpaceOnUse">
<stop stop-color="#00F2FF"/>
<stop offset="1" stop-color="#0077FF"/>
</linearGradient>
</defs>
</svg>
