<svg width="61" height="56" viewBox="0 0 61 56" fill="none" xmlns="http://www.w3.org/2000/svg">
<g filter="url(#filter0_d_23_517)">
<path d="M26.2 24L37 34.8L27 44.8C26.2 45.6 25.2667 46 24.2 46C23.1333 46 22.2 45.6 21.4 44.8L21.3 44.7L20 46H10L16.3 39.7L16.2 39.6C15.4 38.8 15 37.8667 15 36.8C15 35.7333 15.4 34.8 16.2 34L26.2 24V24M29.05 21.15L39 11.2C39.8 10.4 40.7333 10 41.8 10C42.8667 10 43.8 10.4 44.6 11.2L49.8 16.4C50.6 17.2 51 18.1333 51 19.2C51 20.2667 50.6 21.2 49.8 22L39.85 31.95L29.05 21.15V21.15" fill="url(#paint0_linear_23_517)"/>
</g>
<defs>
<filter id="filter0_d_23_517" x="0" y="0" width="61" height="56" filterUnits="userSpaceOnUse" color-interpolation-filters="sRGB">
<feFlood flood-opacity="0" result="BackgroundImageFix"/>
<feColorMatrix in="SourceAlpha" type="matrix" values="0 0 0 0 0 0 0 0 0 0 0 0 0 0 0 0 0 0 127 0" result="hardAlpha"/>
<feOffset/>
<feGaussianBlur stdDeviation="5"/>
<feComposite in2="hardAlpha" operator="out"/>
<feColorMatrix type="matrix" values="0 0 0 0 0 0 0 0 0 1 0 0 0 0 1 0 0 0 0.6 0"/>
<feBlend mode="normal" in2="BackgroundImageFix" result="effect1_dropShadow_23_517"/>
<feBlend mode="normal" in="SourceGraphic" in2="effect1_dropShadow_23_517" result="shape"/>
</filter>
<linearGradient id="paint0_linear_23_517" x1="10" y1="10" x2="45.6977" y2="50.6557" gradientUnits="userSpaceOnUse">
<stop stop-color="#00FFF2"/>
<stop offset="1" stop-color="#00C3FF"/>
</linearGradient>
</defs>
</svg>
