<svg width="56" height="56" viewBox="0 0 56 56" fill="none" xmlns="http://www.w3.org/2000/svg">
<g filter="url(#filter0_d_40_39)">
<path d="M22 32.5C21.3 32.5 20.7083 32.2583 20.225 31.775C19.7417 31.2917 19.5 30.7 19.5 30C19.5 29.3 19.7417 28.7083 20.225 28.225C20.7083 27.7417 21.3 27.5 22 27.5C22.7 27.5 23.2917 27.7417 23.775 28.225C24.2583 28.7083 24.5 29.3 24.5 30C24.5 30.7 24.2583 31.2917 23.775 31.775C23.2917 32.2583 22.7 32.5 22 32.5V32.5M34 32.5C33.3 32.5 32.7083 32.2583 32.225 31.775C31.7417 31.2917 31.5 30.7 31.5 30C31.5 29.3 31.7417 28.7083 32.225 28.225C32.7083 27.7417 33.3 27.5 34 27.5C34.7 27.5 35.2917 27.7417 35.775 28.225C36.2583 28.7083 36.5 29.3 36.5 30C36.5 30.7 36.2583 31.2917 35.775 31.775C35.2917 32.2583 34.7 32.5 34 32.5V32.5M28 44C32.4667 44 36.25 42.45 39.35 39.35C42.45 36.25 44 32.4667 44 28C44 27.2 43.95 26.425 43.85 25.675C43.75 24.925 43.5667 24.2 43.3 23.5C42.6 23.6667 41.9 23.7917 41.2 23.875C40.5 23.9583 39.7667 24 39 24C35.9667 24 33.1 23.35 30.4 22.05C27.7 20.75 25.4 18.9333 23.5 16.6C22.4333 19.2 20.9083 21.4583 18.925 23.375C16.9417 25.2917 14.6333 26.7333 12 27.7C12 27.7667 12 27.8167 12 27.85C12 27.8833 12 27.9333 12 28C12 32.4667 13.55 36.25 16.65 39.35C19.75 42.45 23.5333 44 28 44V44M28 48C25.2333 48 22.6333 47.475 20.2 46.425C17.7667 45.375 15.65 43.95 13.85 42.15C12.05 40.35 10.625 38.2333 9.575 35.8C8.525 33.3667 8 30.7667 8 28C8 25.2333 8.525 22.6333 9.575 20.2C10.625 17.7667 12.05 15.65 13.85 13.85C15.65 12.05 17.7667 10.625 20.2 9.575C22.6333 8.525 25.2333 8 28 8C30.7667 8 33.3667 8.525 35.8 9.575C38.2333 10.625 40.35 12.05 42.15 13.85C43.95 15.65 45.375 17.7667 46.425 20.2C47.475 22.6333 48 25.2333 48 28C48 30.7667 47.475 33.3667 46.425 35.8C45.375 38.2333 43.95 40.35 42.15 42.15C40.35 43.95 38.2333 45.375 35.8 46.425C33.3667 47.475 30.7667 48 28 48V48" fill="#E6E0EF"/>
</g>
<defs>
<filter id="filter0_d_40_39" x="0" y="0" width="56" height="56" filterUnits="userSpaceOnUse" color-interpolation-filters="sRGB">
<feFlood flood-opacity="0" result="BackgroundImageFix"/>
<feColorMatrix in="SourceAlpha" type="matrix" values="0 0 0 0 0 0 0 0 0 0 0 0 0 0 0 0 0 0 127 0" result="hardAlpha"/>
<feOffset/>
<feGaussianBlur stdDeviation="4"/>
<feComposite in2="hardAlpha" operator="out"/>
<feColorMatrix type="matrix" values="0 0 0 0 0.901961 0 0 0 0 0.878431 0 0 0 0 0.937255 0 0 0 0.6 0"/>
<feBlend mode="normal" in2="BackgroundImageFix" result="effect1_dropShadow_40_39"/>
<feBlend mode="normal" in="SourceGraphic" in2="effect1_dropShadow_40_39" result="shape"/>
</filter>
</defs>
</svg>
