<svg width="59" height="58" viewBox="0 0 59 58" fill="none" xmlns="http://www.w3.org/2000/svg">
<g filter="url(#filter0_d_22_306)">
<path d="M28.5 45.6194C27.4 45.6194 26.2917 45.4944 25.175 45.2444C24.0583 44.9944 22.9167 44.6361 21.75 44.1694C22.15 40.1361 23.3167 36.3694 25.25 32.8694C27.1833 29.3694 29.6667 26.2861 32.7 23.6194C29.0333 25.4861 25.8583 27.9528 23.175 31.0194C20.4917 34.0861 18.6167 37.5861 17.55 41.5194C17.4167 41.4194 17.2917 41.3111 17.175 41.1944C17.0583 41.0778 16.9333 40.9528 16.8 40.8194C15.2333 39.2528 14.0417 37.5028 13.225 35.5694C12.4083 33.6361 12 31.6194 12 29.5194C12 27.2528 12.45 25.0861 13.35 23.0194C14.25 20.9528 15.5 19.1194 17.1 17.5194C19.8 14.8194 23.3 13.0611 27.6 12.2444C31.9 11.4278 37.9333 11.3528 45.7 12.0194C46.3 19.9861 46.2 26.0611 45.4 30.2444C44.6 34.4278 42.8667 37.8528 40.2 40.5194C38.5667 42.1528 36.7417 43.4111 34.725 44.2944C32.7083 45.1778 30.6333 45.6194 28.5 45.6194V45.6194" fill="#4ADE80"/>
</g>
<defs>
<filter id="filter0_d_22_306" x="0" y="-0.429993" width="58.0859" height="58.0494" filterUnits="userSpaceOnUse" color-interpolation-filters="sRGB">
<feFlood flood-opacity="0" result="BackgroundImageFix"/>
<feColorMatrix in="SourceAlpha" type="matrix" values="0 0 0 0 0 0 0 0 0 0 0 0 0 0 0 0 0 0 127 0" result="hardAlpha"/>
<feOffset/>
<feGaussianBlur stdDeviation="6"/>
<feComposite in2="hardAlpha" operator="out"/>
<feColorMatrix type="matrix" values="0 0 0 0 0.298039 0 0 0 0 0.686275 0 0 0 0 0.313726 0 0 0 0.4 0"/>
<feBlend mode="normal" in2="BackgroundImageFix" result="effect1_dropShadow_22_306"/>
<feBlend mode="normal" in="SourceGraphic" in2="effect1_dropShadow_22_306" result="shape"/>
</filter>
</defs>
</svg>
